<svg xmlns="http://www.w3.org/2000/svg" viewBox="0 0 76.01 98.03"><defs><style>.cls-1{fill:#c1035c;}.cls-2{fill:#fff;}.cls-3{fill:#7eceef;}</style></defs><title>Fichier 1</title><g id="Calque_2" data-name="Calque 2"><g id="Objects"><path d="M76,86.66a1.68,1.68,0,0,1-1.68,1.68c-5.89,0-11.85-.58-13.15-.72q-1.87.36-3.74.67l.76,6.85A1.68,1.68,0,0,1,56.71,97,170.84,170.84,0,0,1,38,98a170.84,170.84,0,0,1-18.73-1,1.68,1.68,0,0,1-1.49-1.86l.76-6.86q-1.85-.3-3.69-.66c-1.3.13-7.27.72-13.15.72A1.68,1.68,0,0,1,0,86.66C0,80.35,2.38,73,7.06,64.94a82.63,82.63,0,0,1,6.69-9.86A119.36,119.36,0,0,1,16.34,43,129.52,129.52,0,0,1,36.65.7a1.68,1.68,0,0,1,2.72,0A129.56,129.56,0,0,1,59.67,43a119.35,119.35,0,0,1,2.58,12.08,82.42,82.42,0,0,1,6.69,9.86C73.64,73,76,80.35,76,86.66ZM72.59,85c-.63-8.47-5.76-17.49-9.44-23A106.67,106.67,0,0,1,63,84.42C65.06,84.61,68.76,84.89,72.59,85Zm-13-.46a107.5,107.5,0,0,0-3.16-40.63,121.87,121.87,0,0,0-6.83-19A27.36,27.36,0,0,1,38,27.46a27.35,27.35,0,0,1-11.59-2.58,122,122,0,0,0-6.83,19,107.5,107.5,0,0,0-3.16,40.63A117.49,117.49,0,0,0,59.59,84.51Zm-4.92,9.33-.56-5A120.58,120.58,0,0,1,38,89.87a120.62,120.62,0,0,1-16.16-1.09l-.56,5.05A167.53,167.53,0,0,0,54.67,93.83Zm-6.51-72A130.69,130.69,0,0,0,38,4.59,130.6,130.6,0,0,0,27.85,21.84,24,24,0,0,0,38,24.1,24,24,0,0,0,48.16,21.84ZM13,84.42A106.76,106.76,0,0,1,12.87,62C9.19,67.49,4.06,76.5,3.43,85,7.25,84.89,11,84.61,13,84.42Z"/><path class="cls-1" d="M63.14,62c3.68,5.47,8.81,14.48,9.44,23-3.82-.07-7.53-.36-9.6-.54A106.67,106.67,0,0,0,63.14,62Z"/><path class="cls-2" d="M56.43,43.87a107.5,107.5,0,0,1,3.16,40.63,117.49,117.49,0,0,1-43.17,0,107.5,107.5,0,0,1,3.16-40.63,122,122,0,0,1,6.83-19A27.35,27.35,0,0,0,38,27.46,27.36,27.36,0,0,0,49.6,24.88,121.87,121.87,0,0,1,56.43,43.87Zm-2,10.52A16.24,16.24,0,1,0,38.2,70.64,16.26,16.26,0,0,0,54.45,54.4Z"/><path class="cls-3" d="M54.11,88.79l.56,5a167.53,167.53,0,0,1-33.38,0l.56-5.05A120.62,120.62,0,0,0,38,89.87,120.58,120.58,0,0,0,54.11,88.79Z"/><path d="M38.2,38.15A16.24,16.24,0,1,1,22,54.4,16.26,16.26,0,0,1,38.2,38.15ZM51.09,54.4A12.88,12.88,0,1,0,38.2,67.28,12.9,12.9,0,0,0,51.09,54.4Z"/><path class="cls-3" d="M38.2,41.51A12.88,12.88,0,1,1,25.32,54.4,12.9,12.9,0,0,1,38.2,41.51Zm10,12.88a10,10,0,1,0-10,10A10,10,0,0,0,48.22,54.4Z"/><path d="M38.2,44.38a10,10,0,1,1-10,10A10,10,0,0,1,38.2,44.38Zm6.66,10a6.64,6.64,0,0,0-2.25-5L36,60.67a6.65,6.65,0,0,0,8.89-6.27ZM33.19,58.77l6.42-10.88a6.65,6.65,0,0,0-6.42,10.88Z"/><path class="cls-1" d="M38,4.59A130.69,130.69,0,0,1,48.16,21.84,24,24,0,0,1,38,24.1a24,24,0,0,1-10.15-2.26A130.6,130.6,0,0,1,38,4.59Z"/><path class="cls-1" d="M12.87,62A106.76,106.76,0,0,0,13,84.42c-2.07.19-5.78.47-9.6.54C4.06,76.5,9.19,67.49,12.87,62Z"/></g></g></svg>