<svg xmlns="http://www.w3.org/2000/svg" viewBox="0 0 77.8 94.21"><defs><style>.cls-1{fill:#fff;}.cls-2{fill:#c1035c;}.cls-3{fill:#7eceef;}</style></defs><title>Fichier 1</title><g id="Calque_2" data-name="Calque 2"><g id="Objects"><polygon class="cls-1" points="26.11 20.03 18.67 26.97 15.62 37.35 17.23 47.14 23.59 56.47 28.21 68.31 29.23 88.82 33.57 92.81 40.45 92.81 45.73 91.97 48.23 88.82 48.23 68.81 59.12 47.14 61.57 42.74 61.57 33.47 55.41 22.39 47.42 17.64 41.23 15.62 34.24 15.62 26.11 20.03"/><path class="cls-2" d="M76.25,37.35a1.55,1.55,0,0,1,0,3.1H67.57a1.55,1.55,0,0,1,0-3.1Z"/><path class="cls-2" d="M72.59,19.45A1.55,1.55,0,0,1,72,21.57l-7.51,4.34A1.55,1.55,0,1,1,63,23.22l7.51-4.34A1.55,1.55,0,0,1,72.59,19.45Z"/><path class="cls-2" d="M72,56.23a1.55,1.55,0,0,1-1.55,2.68L63,54.58a1.55,1.55,0,1,1,1.55-2.68Z"/><path d="M63.08,38.63a24,24,0,0,1-4.9,14.6,39.66,39.66,0,0,0-8.24,24.11v9.35a7.53,7.53,0,0,1-7.52,7.52h-7a7.53,7.53,0,0,1-7.52-7.52V77.34a40,40,0,0,0-8.24-24.07A24.18,24.18,0,0,1,55.87,21.41,24,24,0,0,1,63.08,38.63ZM55.7,51.35a21.08,21.08,0,0,0-17.11-33.8A21.19,21.19,0,0,0,17.82,38.43a20.88,20.88,0,0,0,4.3,13A43.19,43.19,0,0,1,31,76.75H46.81A42.81,42.81,0,0,1,55.7,51.35ZM46.83,86.69V86.2L31,84.38v1.25l15.77,1.81A4.34,4.34,0,0,0,46.83,86.69Zm0-3.61V79.85H31v1.41Zm-1.95,7.27L31.54,88.82a4.43,4.43,0,0,0,3.87,2.29h7A4.39,4.39,0,0,0,44.89,90.35Z"/><path class="cls-2" d="M58.35,5.21a1.55,1.55,0,0,1,.57,2.12l-4.34,7.51a1.55,1.55,0,1,1-2.68-1.55l4.34-7.51A1.55,1.55,0,0,1,58.35,5.21Z"/><path d="M57.5,38.63c0,.58,0,1.17-.08,1.74a1.55,1.55,0,0,1-1.54,1.41h-.14a1.55,1.55,0,0,1-1.4-1.69c0-.48.07-1,.07-1.45a15.51,15.51,0,0,0-15.5-15.5,1.55,1.55,0,1,1,0-3.1A18.62,18.62,0,0,1,57.5,38.63Z"/><path d="M55.18,43.94A1.55,1.55,0,0,1,56,46a18.56,18.56,0,0,1-2.26,3.88A1.55,1.55,0,1,1,51.26,48a15.56,15.56,0,0,0,1.89-3.23A1.55,1.55,0,0,1,55.18,43.94Z"/><path class="cls-3" d="M46.83,86.2v.49a4.34,4.34,0,0,1-.07.76L31,85.64V84.38Z"/><polygon class="cls-3" points="46.84 79.85 46.84 83.08 31 81.26 31 79.85 46.84 79.85"/><path class="cls-3" d="M31.54,88.82l13.34,1.53a4.39,4.39,0,0,1-2.48.76h-7A4.43,4.43,0,0,1,31.54,88.82Z"/><path class="cls-2" d="M40.45,1.55v8.68a1.55,1.55,0,1,1-3.1,0V1.55a1.55,1.55,0,1,1,3.1,0Z"/><path d="M34.17,62.47a1.55,1.55,0,0,1-1,2,1.57,1.57,0,0,1-.48.08,1.55,1.55,0,0,1-1.47-1.07,46,46,0,0,0-7.13-13.55,18.83,18.83,0,0,1-1.74-2.74,1.55,1.55,0,0,1,2.75-1.42A15.6,15.6,0,0,0,26.56,48,49.18,49.18,0,0,1,34.17,62.47Z"/><path class="cls-2" d="M25.9,13.29a1.55,1.55,0,1,1-2.68,1.55L18.88,7.33a1.55,1.55,0,0,1,2.68-1.55Z"/><path d="M23.57,41a1.55,1.55,0,0,1-1.3,1.76l-.23,0a1.55,1.55,0,0,1-1.53-1.32,18.86,18.86,0,0,1-.2-3,1.55,1.55,0,0,1,3.1,0A15.89,15.89,0,0,0,23.57,41Z"/><path class="cls-2" d="M14.84,23.22a1.55,1.55,0,0,1-1.55,2.68L5.78,21.57a1.55,1.55,0,1,1,1.55-2.68Z"/><path class="cls-2" d="M15.41,52.46a1.55,1.55,0,0,1-.57,2.12L7.33,58.92a1.55,1.55,0,1,1-1.55-2.68l7.51-4.34A1.55,1.55,0,0,1,15.41,52.46Z"/><path class="cls-2" d="M10.23,37.35a1.55,1.55,0,0,1,0,3.1H1.55a1.55,1.55,0,0,1,0-3.1Z"/></g></g></svg>