<svg xmlns="http://www.w3.org/2000/svg" viewBox="0 0 91.5 87.34"><defs><style>.cls-1{fill:#7eceef;}.cls-2{fill:#c1035c;}</style></defs><title>Fichier 1</title><g id="Calque_2" data-name="Calque 2"><g id="Objects"><path d="M91.5,34.46V67.87A14.89,14.89,0,0,1,76.62,82.74H56.26a6.29,6.29,0,0,1-6,4.6H44.08a6.28,6.28,0,0,1,0-12.56h6.13a6.29,6.29,0,0,1,6,4.6H76.62A11.53,11.53,0,0,0,88.13,67.87V66.64A9.54,9.54,0,0,1,81.91,69H74.44a4,4,0,0,1-4-4V38.46a4,4,0,0,1,4-4h7.47a9.55,9.55,0,0,1,6.23,2.31V34.46a27.81,27.81,0,0,0-25-27.69,4.75,4.75,0,0,1-4.28,2.72H32.66a4.75,4.75,0,0,1-4.29-2.72,27.81,27.81,0,0,0-25,27.69v2.28a9.55,9.55,0,0,1,6.23-2.31h7.47a4,4,0,0,1,4,4V64.92a4,4,0,0,1-4,4H9.59A9.6,9.6,0,0,1,0,59.36V34.46a31.17,31.17,0,0,1,28.11-31A4.75,4.75,0,0,1,32.66,0H58.83a4.75,4.75,0,0,1,4.55,3.42A31.17,31.17,0,0,1,91.5,34.46Zm-3.36,24.9V44a6.24,6.24,0,0,0-6.23-6.23H78.47v27.8h3.44A6.24,6.24,0,0,0,88.13,59.36Zm-13,6.23V37.79h-.67a.67.67,0,0,0-.67.67V64.92a.67.67,0,0,0,.67.67ZM60.22,4.75a1.39,1.39,0,0,0-1.38-1.38H32.66a1.38,1.38,0,0,0,0,2.77H58.83A1.39,1.39,0,0,0,60.22,4.75ZM53.12,81.06a2.92,2.92,0,0,0-2.92-2.92H44.08a2.92,2.92,0,0,0,0,5.83h6.13A2.92,2.92,0,0,0,53.12,81.06ZM17.73,64.92V38.46a.67.67,0,0,0-.67-.67h-.67v27.8h.67A.67.67,0,0,0,17.73,64.92Zm-4.7.67V37.79H9.59A6.24,6.24,0,0,0,3.36,44V59.36a6.24,6.24,0,0,0,6.23,6.23Z"/><path class="cls-1" d="M88.13,44V59.36a6.24,6.24,0,0,1-6.23,6.23H78.47V37.79h3.44A6.24,6.24,0,0,1,88.13,44Z"/><path class="cls-2" d="M58.83,3.36a1.38,1.38,0,0,1,0,2.77H32.66a1.38,1.38,0,0,1,0-2.77Z"/><path class="cls-2" d="M50.21,78.14a2.92,2.92,0,1,1,0,5.83H44.08a2.92,2.92,0,0,1,0-5.83Z"/><path class="cls-1" d="M13,37.79v27.8H9.59a6.24,6.24,0,0,1-6.23-6.23V44a6.24,6.24,0,0,1,6.23-6.23Z"/></g></g></svg>