<svg xmlns="http://www.w3.org/2000/svg" viewBox="0 0 1219.8 767.55"><defs><style>.cls-1{fill:#7eceef;}.cls-2{fill:#c1035c;}</style></defs><title>Fichier 1</title><g id="Calque_2" data-name="Calque 2"><g id="Calque_1-2" data-name="Calque 1"><path class="cls-1" d="M459.09,59c0-32.82-81.9-59-49.08-59H564.88L784.65,529.19,1005.51,0h164.66L1017.42,371.56V372L854.83,767l-.21.51H715.77l-178.22-433L644.74,505.89l-96.26-306c-32.82,0-41.26-65.16-41.26-98L459.09,59Z"/><path class="cls-2" d="M56.51.14"/><path class="cls-2" d="M59.43,767.54Z"/><polygon class="cls-2" points="785.89 528.82 564.88 0 785.73 529.19 785.89 528.82"/><polygon class="cls-2" points="785.73 529.19 564.88 0 400.21 0 552.97 371.56 552.97 372.04 715.55 767.03 715.76 767.54 715.76 767.54 715.76 767.54 854.62 767.54 870.02 730.12 785.89 528.82 785.73 529.19"/><path class="cls-2" d="M435.61,529,214.3,0H59.42l-.14.14H0V59.43H0v650H.07L0,767.55l58.17,0c.42,0,.83,0,1.25,0H187v-433l178.22,433H535.41Z"/><path class="cls-2" d="M1219.8,0h-187V767.54h127.54c.48,0,1,0,1.44,0h58V708.12h0V59.43h0Z"/></g></g></svg>