<svg xmlns="http://www.w3.org/2000/svg" viewBox="0 0 100.16 73.2"><defs><style>.cls-1{fill:#7eceef;}.cls-2{fill:#fff;}.cls-3{fill:#c1035c;}</style></defs><title>Fichier 1</title><g id="Calque_2" data-name="Calque 2"><g id="Objects"><path class="cls-1" d="M96.79,10.14v5.2H92.36V13.41a1.68,1.68,0,0,0-1.68-1.68H75.53a1.68,1.68,0,0,0-1.68,1.68v1.92H58.71a26.11,26.11,0,0,0-17.26,0H3.36v-5.2Z"/><path class="cls-1" d="M96.79,64.65v5.19H3.36V64.65H41.45a26.13,26.13,0,0,0,17.25,0Z"/><path d="M100.16,8.46V71.52a1.68,1.68,0,0,1-1.68,1.68H1.68A1.68,1.68,0,0,1,0,71.52V8.46A1.68,1.68,0,0,1,1.68,6.78H7.36V1.68A1.68,1.68,0,0,1,9,0H27.62A1.68,1.68,0,0,1,29.3,1.68v5.1H98.48A1.68,1.68,0,0,1,100.16,8.46ZM96.79,69.84V64.65H58.71a26.13,26.13,0,0,1-17.25,0H3.36v5.19Zm0-8.55V18.69H92.36v6.94a1.68,1.68,0,0,1-1.68,1.68H75.53a1.68,1.68,0,0,1-1.68-1.68V18.69H65.19a26.1,26.1,0,0,1,0,42.59Zm0-46v-5.2H3.36v5.2H41.45a26.11,26.11,0,0,1,17.26,0H73.85V13.41a1.68,1.68,0,0,1,1.68-1.68H90.68a1.68,1.68,0,0,1,1.68,1.68v1.92ZM89,24V15.1H77.21V24ZM72.84,40A22.76,22.76,0,1,0,50.08,62.75,22.79,22.79,0,0,0,72.84,40ZM35,18.69H3.36V61.29H35a26.1,26.1,0,0,1,0-42.59Zm-9-11.92V3.36H10.73V6.78Z"/><path class="cls-2" d="M96.79,18.69V61.29H65.19a26.1,26.1,0,0,0,0-42.59h8.66v6.94a1.68,1.68,0,0,0,1.68,1.68H90.68a1.68,1.68,0,0,0,1.68-1.68V18.69Z"/><path class="cls-3" d="M50.08,17.23A22.76,22.76,0,1,1,27.32,40,22.79,22.79,0,0,1,50.08,17.23ZM68.27,40A18.19,18.19,0,1,0,50.08,58.18,18.21,18.21,0,0,0,68.27,40Z"/><path d="M50.08,21.79A18.19,18.19,0,1,1,31.89,40,18.21,18.21,0,0,1,50.08,21.79ZM64.91,40A14.83,14.83,0,1,0,50.08,54.82,14.85,14.85,0,0,0,64.91,40Z"/><path d="M62.1,40a1.68,1.68,0,0,1-3.36,0,8.67,8.67,0,0,0-8.66-8.66,1.68,1.68,0,0,1,0-3.36A12,12,0,0,1,62.1,40Z"/><path class="cls-2" d="M50.08,25.16A14.83,14.83,0,1,1,35.25,40,14.85,14.85,0,0,1,50.08,25.16ZM60.42,41.67A1.68,1.68,0,0,0,62.1,40a12,12,0,0,0-12-12,1.68,1.68,0,0,0,0,3.36A8.67,8.67,0,0,1,58.74,40,1.68,1.68,0,0,0,60.42,41.67Zm-8.66,8.66a1.68,1.68,0,0,0-1.68-1.68A8.67,8.67,0,0,1,41.42,40a1.68,1.68,0,1,0-3.36,0,12,12,0,0,0,12,12A1.68,1.68,0,0,0,51.76,50.33Z"/><path d="M50.08,48.65a1.68,1.68,0,0,1,0,3.36,12,12,0,0,1-12-12,1.68,1.68,0,1,1,3.36,0A8.67,8.67,0,0,0,50.08,48.65Z"/><path class="cls-2" d="M3.36,18.69H35a26.1,26.1,0,0,0,0,42.59H3.36ZM20.87,30.52a5.59,5.59,0,1,0-5.59,5.59A5.6,5.6,0,0,0,20.87,30.52Z"/><rect class="cls-3" x="10.73" y="3.36" width="15.22" height="3.41"/><path d="M15.28,24.93a5.59,5.59,0,1,1-5.59,5.59A5.6,5.6,0,0,1,15.28,24.93Zm2.23,5.59a2.23,2.23,0,1,0-2.23,2.23A2.23,2.23,0,0,0,17.51,30.52Z"/></g></g></svg>