<svg xmlns="http://www.w3.org/2000/svg" viewBox="0 0 1223.88 767.55"><defs><style>.cls-1{fill:#7eceef;}.cls-2{fill:#c1035c;}.cls-3{fill:#fff;}</style></defs><title>Fichier 3</title><g id="Calque_2" data-name="Calque 2"><g id="Calque_1-2" data-name="Calque 1"><path class="cls-1" d="M461.57,59c0-32.82-81.9-59-49.08-59H567.37L787.13,529.19,1008,0h164.66L1019.9,371.56V372L857.32,767l-.21.51H718.25L540,334.57,647.23,505.89,551,199.91c-32.82,0-41.26-65.16-41.26-98L461.57,59Z"/><path class="cls-2" d="M59,.14"/><path class="cls-2" d="M61.91,767.54Z"/><polygon class="cls-2" points="788.37 528.82 567.36 0 788.22 529.19 788.37 528.82"/><polygon class="cls-2" points="788.22 529.19 567.36 0 402.7 0 555.45 371.56 555.45 372.04 718.03 767.03 718.24 767.54 718.24 767.54 718.24 767.54 857.1 767.54 872.5 730.12 788.37 528.82 788.22 529.19"/><path class="cls-2" d="M438.09,529,216.78,0H61.9l-.14.14H2.48V59.43h0v650h.07l-.07,58.11,58.17,0c.42,0,.83,0,1.25,0H189.45v-433l178.22,433H537.9Z"/><path class="cls-2" d="M1222.29,0h-187V767.54h127.54c.48,0,1,0,1.44,0h58V708.12h0V59.43h0Z"/><path class="cls-3" d="M18.33,241.8q.56,5.36.85,11.84t.28,10.72H20q5.64-11.56,18.33-18.75a53.53,53.53,0,0,1,26.79-7.19q25.1,0,37.65,14.95t12.55,39.48v80.93H96.16v-73a96.7,96.7,0,0,0-1.69-18.89,39.64,39.64,0,0,0-5.78-14.52,27.67,27.67,0,0,0-11-9.45q-6.91-3.38-17.34-3.38a37.05,37.05,0,0,0-14.8,3.1A36.4,36.4,0,0,0,32.71,267a47.18,47.18,0,0,0-9,16.07q-3.39,9.73-3.38,23v67.68H1.13V270.84q0-5.35-.28-13.82T0,241.8Z"/><path class="cls-3" d="M188.37,191a12.5,12.5,0,0,1-4.23,9.73,13.28,13.28,0,0,1-18.61,0,13.3,13.3,0,0,1,0-19.46,13.28,13.28,0,0,1,18.61,0A12.5,12.5,0,0,1,188.37,191Zm-3.95,182.74H165.25v-132h19.18Z"/><path class="cls-3" d="M323.17,255.33l-79,101.8H326v16.64H218.83V360.24l78.68-102.37H222.78V241.8H323.17Z"/><path class="cls-3" d="M473.33,264.73q0-21.79-11.52-32.52t-33.48-10.72a72.28,72.28,0,0,0-28.08,5.4,67.18,67.18,0,0,0-22,14.4l-13.68-16.2q10.44-10.44,27.54-17.28t38.7-6.84a83.85,83.85,0,0,1,25.56,3.78,60.69,60.69,0,0,1,20.88,11.34,51.44,51.44,0,0,1,14,19.08q5,11.53,5,27V336q0,9.72.72,20.16a140.75,140.75,0,0,0,2.16,17.64h-22q-1.08-6.12-1.8-13.32a140,140,0,0,1-.72-14H474q-11.53,16.93-26.1,24.3t-35.1,7.38a78.36,78.36,0,0,1-20-2.71,55.79,55.79,0,0,1-18.72-8.85,49.94,49.94,0,0,1-14-15.9q-5.59-9.75-5.58-23.84,0-19.51,9.9-30.88t26.46-17q16.55-5.6,38-7.23t44.46-1.63Zm-7.2,24.8q-15.12,0-30.42,1.26a132.88,132.88,0,0,0-27.72,5q-12.42,3.78-20.34,11t-7.92,19.08q0,9,3.42,15.12a27.91,27.91,0,0,0,9.18,9.9,39.09,39.09,0,0,0,12.78,5.4,63,63,0,0,0,14.22,1.62,55.93,55.93,0,0,0,23-4.5,48.72,48.72,0,0,0,16.92-12.24,54.16,54.16,0,0,0,10.44-17.82,62.74,62.74,0,0,0,3.6-21.24v-12.6Z"/><path class="cls-3" d="M559,224.73q-.36-10.8-1.08-19.44h23.4q.72,6.84,1.08,15.12t.36,13.68h.72a58.35,58.35,0,0,1,21.6-23.94,59,59,0,0,1,32.4-9.18q4.68,0,8.46.36a46.2,46.2,0,0,1,7.74,1.44l-3.24,23.4a46.83,46.83,0,0,0-7.2-1.44,71.55,71.55,0,0,0-10.08-.72,50,50,0,0,0-18.72,3.59,40.12,40.12,0,0,0-15.66,11.31A59.4,59.4,0,0,0,588,258.67q-4.14,12-4.14,28.91v86.19H559.37V242.37Q559.37,235.54,559,224.73Z"/><path class="cls-3" d="M136.47,574.21,137.3,470h-.62L98.4,574.21h-25L36.21,470h-.62l.83,104.21H2.93V426.94H53.54l33.53,94.43h.83L120,426.94h51.44V574.21Z"/><path class="cls-3" d="M274.37,574.21V426.94h99v30H308.69v27.87h61.15v28.5H308.69v30.58h68.43v30.37Z"/><path class="cls-3" d="M566.4,574.21V512.64H509v61.57H473.42V426.94H509v55.74H566.4V426.94H602V574.21Z"/><path class="cls-3" d="M784,574.21l-32-58.45H739.87v58.45H705.13V426.94h56.16a97.54,97.54,0,0,1,20.7,2.18,53.86,53.86,0,0,1,18.1,7.38,38.67,38.67,0,0,1,12.79,13.73q4.78,8.53,4.78,21.22,0,15-8.11,25.17t-22.46,14.56l38.48,63Zm-1.46-102.13a14.71,14.71,0,0,0-2.2-8.42,15,15,0,0,0-5.64-5,24.67,24.67,0,0,0-7.73-2.39,57.32,57.32,0,0,0-8.25-.62h-19V490h16.93a57.26,57.26,0,0,0,9-.73,28.73,28.73,0,0,0,8.36-2.6,15.1,15.1,0,0,0,8.57-14.56Z"/><path class="cls-3" d="M915.84,574.21V426.94h99v30H950.16v27.87h61.15v28.5H950.16v30.58h68.43v30.37Z"/><path class="cls-3" d="M1107.82,574.21V543.37l70.1-86.47h-68.43v-30h112.94v28.5l-71.76,88h73.22v30.78Z"/></g></g></svg>