<svg xmlns="http://www.w3.org/2000/svg" viewBox="0 0 101.46 94.1"><defs><style>.cls-1{fill:#7eceef;}.cls-2{fill:#fff;}.cls-3{fill:none;stroke:#c1035c;stroke-miterlimit:10;stroke-width:4px;}</style></defs><title>Fichier 1</title><g id="Calque_2" data-name="Calque 2"><g id="Objects"><path d="M101.46,40.38v52a1.68,1.68,0,0,1-1.68,1.68H1.68A1.68,1.68,0,0,1,0,92.42v-52A1.67,1.67,0,0,1,.75,39l13-8.59V1.68A1.68,1.68,0,0,1,15.39,0H86.08a1.68,1.68,0,0,1,1.68,1.68V30.39l13,8.59A1.68,1.68,0,0,1,101.46,40.38ZM98.1,89.29V43.17L59.46,63.67ZM87.76,38.7h6.45l-6.45-4.28Zm-80.5,52h87L50.73,61.92Zm80.5-45.88L93,42.06H87.76ZM84.4,46.64V3.36H17.07V46.64L45.19,61.56,49.8,58.5a1.69,1.69,0,0,1,1.86,0l4.61,3.06Zm-81,42.65L42,63.67,3.36,43.17ZM13.71,44.86v-2.8H8.43Zm0-6.16V34.42L7.26,38.7Z"/><polygon class="cls-1" points="98.1 43.17 98.1 89.29 59.46 63.67 98.1 43.17"/><polygon class="cls-1" points="94.21 38.7 87.76 38.7 87.76 34.42 94.21 38.7"/><polygon class="cls-1" points="94.21 90.74 7.25 90.74 50.73 61.92 94.21 90.74"/><polygon class="cls-1" points="93.03 42.06 87.76 44.86 87.76 42.06 93.03 42.06"/><path class="cls-2" d="M84.4,3.36V46.64L56.27,61.56,51.66,58.5a1.69,1.69,0,0,0-1.86,0l-4.61,3.06L17.07,46.64V3.36Z"/><polygon class="cls-1" points="42.01 63.67 3.36 89.29 3.36 43.17 42.01 63.67"/><polygon class="cls-1" points="13.71 42.06 13.71 44.86 8.43 42.06 13.71 42.06"/><polygon class="cls-1" points="13.71 34.42 13.71 38.7 7.26 38.7 13.71 34.42"/><line class="cls-3" x1="29.21" y1="17.2" x2="72.25" y2="17.2"/><line class="cls-3" x1="29.21" y1="26.46" x2="72.25" y2="26.46"/><line class="cls-3" x1="29.21" y1="35.72" x2="72.25" y2="35.72"/></g></g></svg>