<svg xmlns="http://www.w3.org/2000/svg" viewBox="0 0 102.55 92"><defs><style>.cls-1{fill:#c1035c;}.cls-2{fill:#fff;}.cls-3{fill:#7eceef;}</style></defs><title>Fichier 2</title><g id="Calque_2" data-name="Calque 2"><g id="Objects"><path d="M102.55,37.67V78.58a5.76,5.76,0,0,1-5.76,5.76H74.18v3.41A4.25,4.25,0,0,1,69.93,92H51.86a4.25,4.25,0,0,1-4.25-4.25V71.55H24.23a1.68,1.68,0,1,1,0-3.36h4.08L31,65.25H7.24A7.25,7.25,0,0,1,0,58V7.24A7.25,7.25,0,0,1,7.24,0h84a7.25,7.25,0,0,1,7.24,7.24V32.16A5.77,5.77,0,0,1,102.55,37.67ZM99.19,78.58v-.46h-25V81H96.79A2.4,2.4,0,0,0,99.19,78.58Zm0-3.82V41.49H60.54V51.87h9.39a4.25,4.25,0,0,1,4.25,4.25V74.76Zm0-36.63v-.46a2.4,2.4,0,0,0-2.4-2.4H62.94a2.4,2.4,0,0,0-2.4,2.4v.46Zm-4.08-6.22v-23H3.36V56.11H47.62a4.25,4.25,0,0,1,4.25-4.24h5.31V37.67a5.77,5.77,0,0,1,5.76-5.76ZM3.75,5.56h91a3.87,3.87,0,0,0-3.49-2.2h-84A3.88,3.88,0,0,0,3.75,5.56Zm67.07,82.2V85.55H51v2.21a.89.89,0,0,0,.89.89H69.93A.89.89,0,0,0,70.81,87.75Zm0-5.57V61.68H51v20.5Zm0-23.86V56.11a.89.89,0,0,0-.88-.89H51.86a.89.89,0,0,0-.89.89v2.21Zm-23.2,9.86V65.25h-12L32.9,68.19Zm0-6.29V59.47h-44a3.88,3.88,0,0,0,3.59,2.42Z"/><path class="cls-1" d="M99.19,78.12v.46a2.4,2.4,0,0,1-2.4,2.4H74.18V78.12Z"/><path class="cls-2" d="M99.19,41.49V74.76h-25V56.11a4.25,4.25,0,0,0-4.25-4.25H60.54V41.49Z"/><path class="cls-1" d="M99.19,37.67v.46H60.54v-.46a2.4,2.4,0,0,1,2.4-2.4H96.79A2.4,2.4,0,0,1,99.19,37.67Z"/><path class="cls-2" d="M95.11,8.92v23H62.94a5.77,5.77,0,0,0-5.76,5.76v14.2H51.86a4.25,4.25,0,0,0-4.25,4.24H3.36V8.92Z"/><path class="cls-3" d="M94.72,5.56h-91a3.88,3.88,0,0,1,3.49-2.2h84A3.87,3.87,0,0,1,94.72,5.56Z"/><path class="cls-1" d="M70.81,85.55v2.21a.89.89,0,0,1-.88.89H51.86a.89.89,0,0,1-.89-.89V85.55Z"/><rect class="cls-2" x="50.98" y="61.68" width="19.84" height="20.5"/><path class="cls-1" d="M70.81,56.11v2.21H51V56.11a.89.89,0,0,1,.89-.89H69.93A.89.89,0,0,1,70.81,56.11Z"/><polygon class="cls-3" points="47.62 65.25 47.62 68.19 32.9 68.19 35.63 65.25 47.62 65.25"/><path class="cls-3" d="M47.62,59.47v2.42H7.24a3.88,3.88,0,0,1-3.59-2.42Z"/></g></g></svg>